<?xml version="1.0" encoding="UTF-8" standalone="no"?>
<!DOCTYPE svg PUBLIC "-//W3C//DTD SVG 1.1//EN" "http://www.w3.org/Graphics/SVG/1.1/DTD/svg11.dtd">
<svg xmlns="http://www.w3.org/2000/svg" version="1.1" viewBox="0.00 0.00 706.00 275.00">
<g stroke-width="2.00" fill="none" stroke-linecap="butt">
<path stroke="#f5d581" vector-effect="non-scaling-stroke" d="
  M 340.82 160.95
  C 336.09 176.53 313.87 176.91 308.26 161.78
  Q 306.94 158.21 306.96 151.53
  Q 307.06 126.01 306.99 100.48
  Q 306.97 93.44 305.87 90.68
  C 302.35 81.87 293.83 83.06 285.83 82.98
  Q 282.01 82.95 282.00 86.77
  Q 281.95 116.35 281.98 145.76
  Q 282.00 159.83 283.40 165.64
  C 287.38 182.07 300.31 194.11 316.92 197.08
  Q 336.79 200.63 353.44 186.38
  Q 354.43 185.53 355.39 186.43
  C 371.94 202.16 398.28 201.31 414.31 185.29
  Q 422.09 177.51 424.92 166.88
  Q 426.44 161.16 426.48 147.00
  Q 426.56 116.93 426.49 86.62
  Q 426.48 83.03 422.89 83.00
  C 418.56 82.97 413.21 82.43 409.49 83.96
  C 403.03 86.62 401.52 91.75 401.51 98.74
  Q 401.46 124.67 401.50 150.63
  Q 401.52 158.55 400.10 162.20
  Q 397.61 168.59 391.59 171.27
  C 378.96 176.87 366.65 167.97 366.71 153.99
  Q 366.82 126.35 366.74 98.68
  Q 366.72 93.62 365.98 91.39
  C 362.48 80.87 347.33 80.11 343.01 90.28
  Q 341.70 93.35 341.71 100.41
  Q 341.76 125.44 341.75 150.45
  Q 341.75 157.89 340.82 160.95"
/>
<path stroke="#f5d581" vector-effect="non-scaling-stroke" d="
  M 336.6730 95.1115
  A 11.95 11.95 0.0 0 0 324.7438 83.1407
  L 324.0238 83.1394
  A 11.95 11.95 0.0 0 0 312.0530 95.0686
  L 311.9470 155.7885
  A 11.95 11.95 0.0 0 0 323.8762 167.7593
  L 324.5962 167.7606
  A 11.95 11.95 0.0 0 0 336.5670 155.8314
  L 336.6730 95.1115"
/>
<path stroke="#f5d581" vector-effect="non-scaling-stroke" d="
  M 396.46 95.08
  A 11.94 11.94 0.0 0 0 384.52 83.14
  L 383.78 83.14
  A 11.94 11.94 0.0 0 0 371.84 95.08
  L 371.84 155.80
  A 11.94 11.94 0.0 0 0 383.78 167.74
  L 384.52 167.74
  A 11.94 11.94 0.0 0 0 396.46 155.80
  L 396.46 95.08"
/>
</g>
<path fill="#eaab02" d="
  M 0.00 0.00
  L 706.00 0.00
  L 706.00 275.00
  L 0.00 275.00
  L 0.00 0.00
  Z
  M 340.82 160.95
  C 336.09 176.53 313.87 176.91 308.26 161.78
  Q 306.94 158.21 306.96 151.53
  Q 307.06 126.01 306.99 100.48
  Q 306.97 93.44 305.87 90.68
  C 302.35 81.87 293.83 83.06 285.83 82.98
  Q 282.01 82.95 282.00 86.77
  Q 281.95 116.35 281.98 145.76
  Q 282.00 159.83 283.40 165.64
  C 287.38 182.07 300.31 194.11 316.92 197.08
  Q 336.79 200.63 353.44 186.38
  Q 354.43 185.53 355.39 186.43
  C 371.94 202.16 398.28 201.31 414.31 185.29
  Q 422.09 177.51 424.92 166.88
  Q 426.44 161.16 426.48 147.00
  Q 426.56 116.93 426.49 86.62
  Q 426.48 83.03 422.89 83.00
  C 418.56 82.97 413.21 82.43 409.49 83.96
  C 403.03 86.62 401.52 91.75 401.51 98.74
  Q 401.46 124.67 401.50 150.63
  Q 401.52 158.55 400.10 162.20
  Q 397.61 168.59 391.59 171.27
  C 378.96 176.87 366.65 167.97 366.71 153.99
  Q 366.82 126.35 366.74 98.68
  Q 366.72 93.62 365.98 91.39
  C 362.48 80.87 347.33 80.11 343.01 90.28
  Q 341.70 93.35 341.71 100.41
  Q 341.76 125.44 341.75 150.45
  Q 341.75 157.89 340.82 160.95
  Z
  M 336.6730 95.1115
  A 11.95 11.95 0.0 0 0 324.7438 83.1407
  L 324.0238 83.1394
  A 11.95 11.95 0.0 0 0 312.0530 95.0686
  L 311.9470 155.7885
  A 11.95 11.95 0.0 0 0 323.8762 167.7593
  L 324.5962 167.7606
  A 11.95 11.95 0.0 0 0 336.5670 155.8314
  L 336.6730 95.1115
  Z
  M 396.46 95.08
  A 11.94 11.94 0.0 0 0 384.52 83.14
  L 383.78 83.14
  A 11.94 11.94 0.0 0 0 371.84 95.08
  L 371.84 155.80
  A 11.94 11.94 0.0 0 0 383.78 167.74
  L 384.52 167.74
  A 11.94 11.94 0.0 0 0 396.46 155.80
  L 396.46 95.08
  Z"
/>
<path fill="#ffffff" d="
  M 308.26 161.78
  C 313.87 176.91 336.09 176.53 340.82 160.95
  Q 341.75 157.89 341.75 150.45
  Q 341.76 125.44 341.71 100.41
  Q 341.70 93.35 343.01 90.28
  C 347.33 80.11 362.48 80.87 365.98 91.39
  Q 366.72 93.62 366.74 98.68
  Q 366.82 126.35 366.71 153.99
  C 366.65 167.97 378.96 176.87 391.59 171.27
  Q 397.61 168.59 400.10 162.20
  Q 401.52 158.55 401.50 150.63
  Q 401.46 124.67 401.51 98.74
  C 401.52 91.75 403.03 86.62 409.49 83.96
  C 413.21 82.43 418.56 82.97 422.89 83.00
  Q 426.48 83.03 426.49 86.62
  Q 426.56 116.93 426.48 147.00
  Q 426.44 161.16 424.92 166.88
  Q 422.09 177.51 414.31 185.29
  C 398.28 201.31 371.94 202.16 355.39 186.43
  Q 354.43 185.53 353.44 186.38
  Q 336.79 200.63 316.92 197.08
  C 300.31 194.11 287.38 182.07 283.40 165.64
  Q 282.00 159.83 281.98 145.76
  Q 281.95 116.35 282.00 86.77
  Q 282.01 82.95 285.83 82.98
  C 293.83 83.06 302.35 81.87 305.87 90.68
  Q 306.97 93.44 306.99 100.48
  Q 307.06 126.01 306.96 151.53
  Q 306.94 158.21 308.26 161.78
  Z"
/>
<rect fill="#ffffff" x="-12.31" y="-42.31" transform="translate(324.31,125.45) rotate(0.1)" width="24.62" height="84.62" rx="11.95"/>
<rect fill="#ffffff" x="371.84" y="83.14" width="24.62" height="84.60" rx="11.94"/>
</svg>
